<svg width="225" height="225" viewBox="0 0 225 225" fill="none" xmlns="http://www.w3.org/2000/svg">
<path fill-rule="evenodd" clip-rule="evenodd" d="M172.397 0H0V225H225V36.7398L188.368 57.2109L172.397 0Z" fill="#151515"/>
<path d="M59.5146 186V174.311L74.6367 171.713V65.3018L59.5146 62.7041V50.9219H121.58C135.991 50.9219 147.186 54.6328 155.164 62.0547C163.204 69.4766 167.225 79.2487 167.225 91.3711C167.225 103.617 163.204 113.42 155.164 120.78C147.186 128.14 135.991 131.82 121.58 131.82H92.9131V171.713L108.035 174.311V186H59.5146ZM92.9131 117.533H121.58C130.734 117.533 137.568 115.09 142.083 110.204C146.66 105.256 148.948 99.0404 148.948 91.5566C148.948 84.0729 146.66 77.8262 142.083 72.8164C137.568 67.8066 130.734 65.3018 121.58 65.3018H92.9131V117.533Z" fill="white"/>
</svg>
